<?xml version="1.0" encoding="UTF-8"?>
<svg width="512" height="512" viewBox="0 0 512 512" fill="none" xmlns="http://www.w3.org/2000/svg">
  <defs>
    <linearGradient id="grad1" x1="0%" y1="0%" x2="100%" y2="100%">
      <stop offset="0%" stop-color="#112b2d" />
      <stop offset="100%" stop-color="#102c2f" />
    </linearGradient>
  </defs>
  <rect width="512" height="512" rx="100" fill="url(#grad1)"/>
  <path d="M256 112C193.03 112 142 163.03 142 226C142 288.97 193.03 340 256 340C318.97 340 370 288.97 370 226C370 163.03 318.97 112 256 112ZM256 308C211.9 308 176 272.1 176 228C176 183.9 211.9 148 256 148C300.1 148 336 183.9 336 228C336 272.1 300.1 308 256 308Z" fill="#fdfcf8"/>
  <path d="M256 168C223.9 168 198 193.9 198 226C198 258.1 223.9 284 256 284C288.1 284 314 258.1 314 226C314 193.9 288.1 168 256 168ZM256 252C241.6 252 230 240.4 230 226C230 211.6 241.6 200 256 200C270.4 200 282 211.6 282 226C282 240.4 270.4 252 256 252Z" fill="#fdfcf8"/>
  <path d="M416 218.94V189.06C416 128.97 367.03 80 306.94 80H205.06C144.97 80 96 128.97 96 189.06V290.94C96 351.03 144.97 400 205.06 400H306.94C367.03 400 416 351.03 416 290.94V261.06" stroke="#fdfcf8" stroke-width="16" stroke-linecap="round"/>
  <path d="M138 380L374 132" stroke="#fdfcf8" stroke-width="16" stroke-linecap="round"/>
</svg>
